<svg xmlns="http://www.w3.org/2000/svg" version="1" xmlns:xlink="http://www.w3.org/1999/xlink" width="1000" zoomAndPan="magnify" viewBox="0 0 750 749.999995" height="1000" preserveAspectRatio="xMidYMid meet"><metadata><rdf:RDF xmlns:rdf="http://www.w3.org/1999/02/22-rdf-syntax-ns#" xmlns:dc="http://purl.org/dc/elements/1.1/"><rdf:Description><dc:creator>RealFaviconGenerator</dc:creator><dc:source>https://realfavicongenerator.net</dc:source></rdf:Description></rdf:RDF></metadata><defs><g></g><clipPath id="cb328045cc"><rect x="0" width="657" y="0" height="750"></rect></clipPath><clipPath id="ed80ce4d01"><path d="M 636.105469 483.738281 L 695.425781 483.738281 L 695.425781 537.402344 L 636.105469 537.402344 Z M 636.105469 483.738281 " clip-rule="nonzero"></path></clipPath><clipPath id="17f9a13df0"><path d="M 694.554688 495.078125 C 692.6875 488.738281 686.660156 483.738281 679.535156 483.738281 C 673.550781 483.738281 668.351562 487.117188 665.722656 492.074219 C 663.09375 487.117188 657.898438 483.738281 651.914062 483.738281 C 644.457031 483.738281 637.9375 488.738281 636.65625 495.992188 C 633.410156 514.390625 653.988281 528.789062 665.769531 537.402344 C 676.664062 529.441406 699.894531 513.207031 694.554688 495.078125 Z M 694.554688 495.078125 " clip-rule="nonzero"></path></clipPath><clipPath id="fb4b2190e8"><path d="M 0.238281 0.738281 L 59.425781 0.738281 L 59.425781 54.402344 L 0.238281 54.402344 Z M 0.238281 0.738281 " clip-rule="nonzero"></path></clipPath><clipPath id="054b92a12e"><path d="M 58.554688 12.078125 C 56.6875 5.738281 50.660156 0.738281 43.535156 0.738281 C 37.550781 0.738281 32.351562 4.117188 29.722656 9.074219 C 27.09375 4.117188 21.898438 0.738281 15.914062 0.738281 C 8.457031 0.738281 1.9375 5.738281 0.65625 12.992188 C -2.589844 31.390625 17.988281 45.789062 29.769531 54.402344 C 40.664062 46.441406 63.894531 30.207031 58.554688 12.078125 Z M 58.554688 12.078125 " clip-rule="nonzero"></path></clipPath><clipPath id="9ccbdae653"><rect x="0" width="60" y="0" height="55"></rect></clipPath></defs><g transform="matrix(1, 0, 0, 1, 30, -0.000000000000042435)"><g clip-path="url(#cb328045cc)"><g fill="#ffffff" fill-opacity="1"><g transform="translate(24.658001, 586.34283)"><g><path d="M 613.53125 -232.5 C 618.195312 -230.425781 620.269531 -227.960938 619.75 -225.109375 C 619.238281 -222.265625 618.460938 -219.285156 617.421875 -216.171875 C 607.566406 -191.285156 597.328125 -166.53125 586.703125 -141.90625 C 576.078125 -117.289062 562.726562 -94.09375 546.65625 -72.3125 C 543.550781 -68.164062 540.3125 -64.148438 536.9375 -60.265625 C 533.570312 -56.378906 530.332031 -52.617188 527.21875 -48.984375 C 518.925781 -38.617188 508.296875 -32.398438 495.328125 -30.328125 C 482.367188 -28.253906 469.671875 -29.804688 457.234375 -34.984375 C 444.796875 -40.171875 435.207031 -49.242188 428.46875 -62.203125 C 422.238281 -73.609375 417.050781 -85.273438 412.90625 -97.203125 C 408.757812 -109.128906 405.132812 -121.3125 402.03125 -133.75 C 398.914062 -147.75 396.320312 -161.875 394.25 -176.125 C 392.175781 -190.382812 390.359375 -204.515625 388.796875 -218.515625 C 387.242188 -229.398438 384.914062 -240.023438 381.8125 -250.390625 C 378.695312 -260.753906 373.25 -262.3125 365.46875 -255.0625 C 357.695312 -247.28125 350.828125 -238.851562 344.859375 -229.78125 C 338.898438 -220.707031 333.585938 -210.988281 328.921875 -200.625 C 319.078125 -176.257812 310.394531 -151.765625 302.875 -127.140625 C 295.363281 -102.515625 289.015625 -77.242188 283.828125 -51.328125 C 281.753906 -40.441406 280.195312 -32.921875 279.15625 -28.765625 C 278.125 -24.617188 275.40625 -22.414062 271 -22.15625 C 266.59375 -21.894531 258.164062 -22.285156 245.71875 -23.328125 C 236.394531 -23.847656 230.820312 -25.015625 229 -26.828125 C 227.1875 -28.640625 226.28125 -34.472656 226.28125 -44.328125 C 226.28125 -66.617188 226.28125 -89.164062 226.28125 -111.96875 C 226.28125 -134.78125 226.28125 -157.59375 226.28125 -180.40625 C 226.28125 -204.769531 225.375 -229.265625 223.5625 -253.890625 C 221.75 -278.515625 217.988281 -302.75 212.28125 -326.59375 C 210.726562 -333.851562 208.914062 -340.984375 206.84375 -347.984375 C 204.769531 -354.984375 201.921875 -361.851562 198.296875 -368.59375 C 191.554688 -380.507812 182.484375 -382.320312 171.078125 -374.03125 C 167.960938 -371.957031 165.109375 -369.363281 162.515625 -366.25 C 159.921875 -363.144531 157.332031 -360.035156 154.75 -356.921875 C 148.519531 -348.109375 143.070312 -338.90625 138.40625 -329.3125 C 133.75 -319.726562 129.601562 -310.007812 125.96875 -300.15625 C 113.007812 -261.789062 101.21875 -223.296875 90.59375 -184.671875 C 79.96875 -146.054688 73.875 -106.269531 72.3125 -65.3125 C 72.3125 -58.0625 71.789062 -50.804688 70.75 -43.546875 C 69.71875 -36.285156 68.941406 -29.023438 68.421875 -21.765625 C 67.910156 -14.515625 66.742188 -9.976562 64.921875 -8.15625 C 63.109375 -6.34375 58.578125 -5.4375 51.328125 -5.4375 C 40.953125 -4.925781 29.804688 -5.1875 17.890625 -6.21875 C 10.109375 -6.21875 5.179688 -7.125 3.109375 -8.9375 C 1.035156 -10.757812 -0.773438 -15.554688 -2.328125 -23.328125 C -4.921875 -36.804688 -6.863281 -50.285156 -8.15625 -63.765625 C -9.457031 -77.242188 -10.367188 -90.722656 -10.890625 -104.203125 C -13.484375 -155.523438 -13.351562 -206.71875 -10.5 -257.78125 C -7.644531 -308.84375 -2.332031 -359.773438 5.4375 -410.578125 C 5.957031 -412.648438 6.347656 -414.59375 6.609375 -416.40625 C 6.867188 -418.21875 7.257812 -419.90625 7.78125 -421.46875 C 9.332031 -432.875 15.550781 -438.316406 26.4375 -437.796875 C 31.625 -437.796875 36.675781 -438.179688 41.59375 -438.953125 C 46.519531 -439.734375 51.578125 -440.125 56.765625 -440.125 C 66.617188 -440.644531 72.453125 -440.125 74.265625 -438.5625 C 76.078125 -437.007812 77.242188 -431.3125 77.765625 -421.46875 C 78.796875 -409.019531 79.570312 -396.570312 80.09375 -384.125 C 80.613281 -371.6875 80.613281 -359.25 80.09375 -346.8125 C 80.09375 -345.257812 80.09375 -343.445312 80.09375 -341.375 C 80.09375 -339.300781 80.09375 -336.707031 80.09375 -333.59375 C 84.238281 -336.1875 87.085938 -339.035156 88.640625 -342.140625 C 90.203125 -345.253906 92.019531 -348.109375 94.09375 -350.703125 C 101.351562 -361.066406 109.257812 -370.65625 117.8125 -379.46875 C 126.363281 -388.28125 136.34375 -395.800781 147.75 -402.03125 C 171.070312 -415.5 193.488281 -418.472656 215 -410.953125 C 236.519531 -403.441406 252.460938 -387.242188 262.828125 -362.359375 C 268.015625 -348.878906 271.90625 -335.398438 274.5 -321.921875 C 277.09375 -308.453125 278.90625 -294.71875 279.9375 -280.71875 C 280.976562 -270.351562 281.882812 -259.851562 282.65625 -249.21875 C 283.4375 -238.59375 284.085938 -227.835938 284.609375 -216.953125 C 288.753906 -218.503906 291.601562 -220.832031 293.15625 -223.9375 C 294.707031 -227.050781 296.265625 -229.90625 297.828125 -232.5 C 303.523438 -241.3125 309.484375 -249.734375 315.703125 -257.765625 C 321.929688 -265.804688 328.671875 -273.457031 335.921875 -280.71875 C 339.035156 -283.3125 342.144531 -285.898438 345.25 -288.484375 C 348.363281 -291.078125 351.476562 -293.671875 354.59375 -296.265625 C 374.8125 -309.222656 393.34375 -312.460938 410.1875 -305.984375 C 427.039062 -299.503906 438.578125 -284.859375 444.796875 -262.046875 C 448.421875 -250.128906 451.007812 -238.207031 452.5625 -226.28125 C 454.125 -214.363281 455.160156 -202.441406 455.671875 -190.515625 C 455.671875 -173.921875 456.707031 -157.457031 458.78125 -141.125 C 460.863281 -124.800781 463.195312 -108.347656 465.78125 -91.765625 C 466.820312 -86.054688 468.378906 -80.476562 470.453125 -75.03125 C 472.523438 -69.59375 475.632812 -64.800781 479.78125 -60.65625 C 485.488281 -53.914062 491.710938 -53.140625 498.453125 -58.328125 C 502.597656 -61.429688 506.09375 -64.796875 508.9375 -68.421875 C 511.789062 -72.054688 514.515625 -75.945312 517.109375 -80.09375 C 530.066406 -99.269531 541.726562 -119.226562 552.09375 -139.96875 C 562.46875 -160.707031 572.578125 -181.441406 582.421875 -202.171875 C 584.503906 -205.804688 586.453125 -209.695312 588.265625 -213.84375 C 590.078125 -217.988281 592.019531 -222.132812 594.09375 -226.28125 C 596.164062 -230.945312 598.882812 -233.539062 602.25 -234.0625 C 605.625 -234.582031 609.382812 -234.0625 613.53125 -232.5 Z M 613.53125 -232.5 "></path></g></g></g></g></g><g clip-path="url(#ed80ce4d01)"><g clip-path="url(#17f9a13df0)"><g transform="matrix(1, 0, 0, 1, 636, 483)"><g clip-path="url(#9ccbdae653)"><g clip-path="url(#fb4b2190e8)"><g clip-path="url(#054b92a12e)"><path fill="#ff5757" d="M 0.3125 0.738281 L 59.425781 0.738281 L 59.425781 54.402344 L 0.3125 54.402344 Z M 0.3125 0.738281 " fill-opacity="1" fill-rule="nonzero"></path></g></g></g></g></g></g></svg>
