<svg xmlns="http://www.w3.org/2000/svg" xmlns:xlink="http://www.w3.org/1999/xlink" width="1500" zoomAndPan="magnify" viewBox="0 0 1125 374.999991" height="500" preserveAspectRatio="xMidYMid meet" version="1.0"><defs><g/><clipPath id="ce961fe700"><path d="M 1087.414062 279.351562 L 1112.132812 279.351562 L 1112.132812 301.714844 L 1087.414062 301.714844 Z M 1087.414062 279.351562 " clip-rule="nonzero"/></clipPath><clipPath id="e6617ebcad"><path d="M 1111.769531 284.078125 C 1110.992188 281.433594 1108.480469 279.351562 1105.511719 279.351562 C 1103.015625 279.351562 1100.851562 280.757812 1099.753906 282.824219 C 1098.660156 280.757812 1096.492188 279.351562 1094 279.351562 C 1090.894531 279.351562 1088.175781 281.433594 1087.644531 284.457031 C 1086.289062 292.125 1094.863281 298.125 1099.773438 301.714844 C 1104.3125 298.394531 1113.996094 291.632812 1111.769531 284.078125 Z M 1111.769531 284.078125 " clip-rule="nonzero"/></clipPath><clipPath id="5d94c4853a"><path d="M 0.441406 0.351562 L 25.132812 0.351562 L 25.132812 22.714844 L 0.441406 22.714844 Z M 0.441406 0.351562 " clip-rule="nonzero"/></clipPath><clipPath id="2ea2040a78"><path d="M 24.769531 5.078125 C 23.992188 2.433594 21.480469 0.351562 18.511719 0.351562 C 16.015625 0.351562 13.851562 1.757812 12.753906 3.824219 C 11.660156 1.757812 9.492188 0.351562 7 0.351562 C 3.894531 0.351562 1.175781 2.433594 0.644531 5.457031 C -0.710938 13.125 7.863281 19.125 12.773438 22.714844 C 17.3125 19.394531 26.996094 12.632812 24.769531 5.078125 Z M 24.769531 5.078125 " clip-rule="nonzero"/></clipPath><clipPath id="3a6e459973"><rect x="0" width="26" y="0" height="23"/></clipPath></defs><g fill="#6e9274" fill-opacity="1"><g transform="translate(31.464855, 294.374981)"><g><path d="M 252.484375 -95.6875 C 254.398438 -94.832031 255.25 -93.816406 255.03125 -92.640625 C 254.820312 -91.460938 254.503906 -90.234375 254.078125 -88.953125 C 250.023438 -78.710938 245.8125 -68.523438 241.4375 -58.390625 C 237.0625 -48.265625 231.566406 -38.722656 224.953125 -29.765625 C 223.679688 -28.054688 222.347656 -26.398438 220.953125 -24.796875 C 219.566406 -23.203125 218.234375 -21.65625 216.953125 -20.15625 C 213.546875 -15.894531 209.175781 -13.335938 203.84375 -12.484375 C 198.507812 -11.628906 193.28125 -12.265625 188.15625 -14.390625 C 183.039062 -16.523438 179.09375 -20.257812 176.3125 -25.59375 C 173.757812 -30.289062 171.628906 -35.09375 169.921875 -40 C 168.210938 -44.90625 166.71875 -49.921875 165.4375 -55.046875 C 164.15625 -60.804688 163.085938 -66.617188 162.234375 -72.484375 C 161.378906 -78.347656 160.632812 -84.160156 160 -89.921875 C 159.363281 -94.398438 158.40625 -98.773438 157.125 -103.046875 C 155.84375 -107.304688 153.601562 -107.941406 150.40625 -104.953125 C 147.195312 -101.753906 144.363281 -98.285156 141.90625 -94.546875 C 139.457031 -90.816406 137.273438 -86.820312 135.359375 -82.5625 C 131.304688 -72.53125 127.734375 -62.445312 124.640625 -52.3125 C 121.546875 -42.1875 118.929688 -31.789062 116.796875 -21.125 C 115.941406 -16.644531 115.300781 -13.550781 114.875 -11.84375 C 114.445312 -10.132812 113.328125 -9.222656 111.515625 -9.109375 C 109.703125 -9.003906 106.238281 -9.164062 101.125 -9.59375 C 97.28125 -9.8125 94.984375 -10.289062 94.234375 -11.03125 C 93.492188 -11.78125 93.125 -14.179688 93.125 -18.234375 C 93.125 -27.410156 93.125 -36.691406 93.125 -46.078125 C 93.125 -55.460938 93.125 -64.847656 93.125 -74.234375 C 93.125 -84.265625 92.75 -94.347656 92 -104.484375 C 91.25 -114.617188 89.703125 -124.59375 87.359375 -134.40625 C 86.722656 -137.382812 85.976562 -140.3125 85.125 -143.1875 C 84.269531 -146.070312 83.09375 -148.90625 81.59375 -151.6875 C 78.820312 -156.59375 75.09375 -157.335938 70.40625 -153.921875 C 69.125 -153.066406 67.945312 -152 66.875 -150.71875 C 65.8125 -149.4375 64.75 -148.15625 63.6875 -146.875 C 61.125 -143.25 58.878906 -139.460938 56.953125 -135.515625 C 55.035156 -131.566406 53.332031 -127.566406 51.84375 -123.515625 C 46.507812 -107.734375 41.65625 -91.894531 37.28125 -76 C 32.90625 -60.101562 30.398438 -43.726562 29.765625 -26.875 C 29.765625 -23.894531 29.550781 -20.910156 29.125 -17.921875 C 28.695312 -14.929688 28.375 -11.941406 28.15625 -8.953125 C 27.945312 -5.972656 27.46875 -4.109375 26.71875 -3.359375 C 25.96875 -2.609375 24.101562 -2.234375 21.125 -2.234375 C 16.851562 -2.023438 12.265625 -2.132812 7.359375 -2.5625 C 4.160156 -2.5625 2.132812 -2.929688 1.28125 -3.671875 C 0.425781 -4.421875 -0.316406 -6.394531 -0.953125 -9.59375 C -2.023438 -15.144531 -2.828125 -20.691406 -3.359375 -26.234375 C -3.890625 -31.785156 -4.265625 -37.332031 -4.484375 -42.875 C -5.546875 -64 -5.488281 -85.066406 -4.3125 -106.078125 C -3.144531 -127.085938 -0.960938 -148.046875 2.234375 -168.953125 C 2.453125 -169.804688 2.613281 -170.609375 2.71875 -171.359375 C 2.820312 -172.109375 2.984375 -172.800781 3.203125 -173.4375 C 3.835938 -178.132812 6.394531 -180.375 10.875 -180.15625 C 13.007812 -180.15625 15.085938 -180.316406 17.109375 -180.640625 C 19.140625 -180.960938 21.222656 -181.125 23.359375 -181.125 C 27.410156 -181.332031 29.8125 -181.113281 30.5625 -180.46875 C 31.3125 -179.832031 31.789062 -177.488281 32 -173.4375 C 32.425781 -168.320312 32.742188 -163.203125 32.953125 -158.078125 C 33.171875 -152.960938 33.171875 -147.84375 32.953125 -142.71875 C 32.953125 -142.082031 32.953125 -141.335938 32.953125 -140.484375 C 32.953125 -139.628906 32.953125 -138.5625 32.953125 -137.28125 C 34.660156 -138.34375 35.832031 -139.515625 36.46875 -140.796875 C 37.113281 -142.078125 37.863281 -143.25 38.71875 -144.3125 C 41.707031 -148.582031 44.960938 -152.53125 48.484375 -156.15625 C 52.003906 -159.78125 56.109375 -162.875 60.796875 -165.4375 C 70.398438 -170.988281 79.628906 -172.21875 88.484375 -169.125 C 97.335938 -166.03125 103.894531 -159.363281 108.15625 -149.125 C 110.289062 -143.570312 111.890625 -138.019531 112.953125 -132.46875 C 114.023438 -126.925781 114.773438 -121.273438 115.203125 -115.515625 C 115.628906 -111.253906 116 -106.9375 116.3125 -102.5625 C 116.632812 -98.1875 116.90625 -93.757812 117.125 -89.28125 C 118.832031 -89.914062 120.003906 -90.875 120.640625 -92.15625 C 121.273438 -93.4375 121.914062 -94.613281 122.5625 -95.6875 C 124.90625 -99.3125 127.359375 -102.773438 129.921875 -106.078125 C 132.484375 -109.390625 135.253906 -112.535156 138.234375 -115.515625 C 139.515625 -116.585938 140.796875 -117.65625 142.078125 -118.71875 C 143.359375 -119.78125 144.640625 -120.847656 145.921875 -121.921875 C 154.242188 -127.253906 161.867188 -128.585938 168.796875 -125.921875 C 175.734375 -123.253906 180.484375 -117.226562 183.046875 -107.84375 C 184.535156 -102.9375 185.597656 -98.03125 186.234375 -93.125 C 186.878906 -88.21875 187.304688 -83.3125 187.515625 -78.40625 C 187.515625 -71.570312 187.941406 -64.796875 188.796875 -58.078125 C 189.648438 -51.359375 190.613281 -44.585938 191.6875 -37.765625 C 192.101562 -35.410156 192.738281 -33.113281 193.59375 -30.875 C 194.445312 -28.632812 195.726562 -26.660156 197.4375 -24.953125 C 199.78125 -22.179688 202.34375 -21.863281 205.125 -24 C 206.832031 -25.28125 208.269531 -26.664062 209.4375 -28.15625 C 210.613281 -29.65625 211.734375 -31.253906 212.796875 -32.953125 C 218.128906 -40.847656 222.925781 -49.0625 227.1875 -57.59375 C 231.457031 -66.132812 235.625 -74.671875 239.6875 -83.203125 C 240.53125 -84.691406 241.328125 -86.289062 242.078125 -88 C 242.828125 -89.707031 243.628906 -91.414062 244.484375 -93.125 C 245.335938 -95.039062 246.457031 -96.101562 247.84375 -96.3125 C 249.226562 -96.53125 250.773438 -96.320312 252.484375 -95.6875 Z M 252.484375 -95.6875 "/></g></g></g><g fill="#6e9274" fill-opacity="1"><g transform="translate(270.820694, 294.374981)"><g><path d="M 134.078125 -93.125 C 136.210938 -91.84375 136.957031 -90.5625 136.3125 -89.28125 C 135.675781 -88 134.929688 -86.71875 134.078125 -85.4375 C 126.609375 -74.34375 118.976562 -63.351562 111.1875 -52.46875 C 103.40625 -41.59375 95.570312 -30.71875 87.6875 -19.84375 C 82.988281 -13.65625 77.4375 -9.28125 71.03125 -6.71875 C 64.632812 -4.15625 58.078125 -3.085938 51.359375 -3.515625 C 44.640625 -3.941406 38.289062 -5.488281 32.3125 -8.15625 C 26.34375 -10.820312 21.4375 -14.394531 17.59375 -18.875 C 11.832031 -26.132812 7.242188 -33.867188 3.828125 -42.078125 C 0.421875 -50.296875 -2.023438 -58.988281 -3.515625 -68.15625 C -4.160156 -71.351562 -4.640625 -74.601562 -4.953125 -77.90625 C -5.273438 -81.21875 -5.332031 -84.582031 -5.125 -88 C -4.90625 -98.238281 -3.675781 -108.316406 -1.4375 -118.234375 C 0.800781 -128.160156 4.375 -137.816406 9.28125 -147.203125 C 12.050781 -152.535156 15.410156 -157.492188 19.359375 -162.078125 C 23.304688 -166.660156 27.945312 -170.445312 33.28125 -173.4375 C 39.25 -176.851562 45.21875 -178.773438 51.1875 -179.203125 C 57.164062 -179.628906 63.144531 -177.816406 69.125 -173.765625 C 75.09375 -169.710938 79.144531 -164.804688 81.28125 -159.046875 C 83.414062 -153.285156 83.945312 -146.882812 82.875 -139.84375 C 80.957031 -127.25 76.53125 -116.6875 69.59375 -108.15625 C 62.664062 -99.625 53.015625 -93.546875 40.640625 -89.921875 C 36.585938 -88.847656 34.664062 -86.394531 34.875 -82.5625 C 35.09375 -73.382812 36.109375 -64.367188 37.921875 -55.515625 C 39.734375 -46.660156 42.023438 -37.96875 44.796875 -29.4375 C 46.078125 -25.601562 48.101562 -22.191406 50.875 -19.203125 C 54.71875 -15.148438 58.988281 -14.722656 63.6875 -17.921875 C 65.382812 -18.984375 66.875 -20.207031 68.15625 -21.59375 C 69.4375 -22.988281 70.71875 -24.429688 72 -25.921875 C 79.675781 -34.671875 87.035156 -43.679688 94.078125 -52.953125 C 101.117188 -62.234375 108.050781 -71.566406 114.875 -80.953125 C 116.15625 -82.878906 117.488281 -84.851562 118.875 -86.875 C 120.257812 -88.90625 121.703125 -90.878906 123.203125 -92.796875 C 124.910156 -94.722656 126.507812 -95.6875 128 -95.6875 C 129.488281 -95.6875 131.515625 -94.832031 134.078125 -93.125 Z M 40 -132.15625 C 38.71875 -127.039062 37.597656 -121.867188 36.640625 -116.640625 C 35.679688 -111.410156 35.203125 -106.023438 35.203125 -100.484375 C 36.265625 -100.265625 37.171875 -100.257812 37.921875 -100.46875 C 38.671875 -100.6875 39.363281 -101.007812 40 -101.4375 C 45.125 -104.425781 49.5 -109.015625 53.125 -115.203125 C 56.75 -121.390625 59.203125 -128 60.484375 -135.03125 C 61.765625 -142.070312 61.550781 -148.367188 59.84375 -153.921875 C 59.625 -154.128906 59.515625 -154.394531 59.515625 -154.71875 C 59.515625 -155.039062 59.410156 -155.304688 59.203125 -155.515625 C 58.554688 -156.796875 57.859375 -158.019531 57.109375 -159.1875 C 56.367188 -160.363281 55.253906 -160.953125 53.765625 -160.953125 C 52.265625 -161.171875 51.085938 -160.742188 50.234375 -159.671875 C 49.378906 -158.609375 48.632812 -157.4375 48 -156.15625 C 46.507812 -152.101562 45.066406 -148.101562 43.671875 -144.15625 C 42.285156 -140.207031 41.0625 -136.207031 40 -132.15625 Z M 40 -132.15625 "/></g></g></g><g fill="#6e9274" fill-opacity="1"><g transform="translate(391.458603, 294.374981)"><g><path d="M 252.484375 -95.6875 C 254.398438 -94.832031 255.25 -93.816406 255.03125 -92.640625 C 254.820312 -91.460938 254.503906 -90.234375 254.078125 -88.953125 C 250.023438 -78.710938 245.8125 -68.523438 241.4375 -58.390625 C 237.0625 -48.265625 231.566406 -38.722656 224.953125 -29.765625 C 223.679688 -28.054688 222.347656 -26.398438 220.953125 -24.796875 C 219.566406 -23.203125 218.234375 -21.65625 216.953125 -20.15625 C 213.546875 -15.894531 209.175781 -13.335938 203.84375 -12.484375 C 198.507812 -11.628906 193.28125 -12.265625 188.15625 -14.390625 C 183.039062 -16.523438 179.09375 -20.257812 176.3125 -25.59375 C 173.757812 -30.289062 171.628906 -35.09375 169.921875 -40 C 168.210938 -44.90625 166.71875 -49.921875 165.4375 -55.046875 C 164.15625 -60.804688 163.085938 -66.617188 162.234375 -72.484375 C 161.378906 -78.347656 160.632812 -84.160156 160 -89.921875 C 159.363281 -94.398438 158.40625 -98.773438 157.125 -103.046875 C 155.84375 -107.304688 153.601562 -107.941406 150.40625 -104.953125 C 147.195312 -101.753906 144.363281 -98.285156 141.90625 -94.546875 C 139.457031 -90.816406 137.273438 -86.820312 135.359375 -82.5625 C 131.304688 -72.53125 127.734375 -62.445312 124.640625 -52.3125 C 121.546875 -42.1875 118.929688 -31.789062 116.796875 -21.125 C 115.941406 -16.644531 115.300781 -13.550781 114.875 -11.84375 C 114.445312 -10.132812 113.328125 -9.222656 111.515625 -9.109375 C 109.703125 -9.003906 106.238281 -9.164062 101.125 -9.59375 C 97.28125 -9.8125 94.984375 -10.289062 94.234375 -11.03125 C 93.492188 -11.78125 93.125 -14.179688 93.125 -18.234375 C 93.125 -27.410156 93.125 -36.691406 93.125 -46.078125 C 93.125 -55.460938 93.125 -64.847656 93.125 -74.234375 C 93.125 -84.265625 92.75 -94.347656 92 -104.484375 C 91.25 -114.617188 89.703125 -124.59375 87.359375 -134.40625 C 86.722656 -137.382812 85.976562 -140.3125 85.125 -143.1875 C 84.269531 -146.070312 83.09375 -148.90625 81.59375 -151.6875 C 78.820312 -156.59375 75.09375 -157.335938 70.40625 -153.921875 C 69.125 -153.066406 67.945312 -152 66.875 -150.71875 C 65.8125 -149.4375 64.75 -148.15625 63.6875 -146.875 C 61.125 -143.25 58.878906 -139.460938 56.953125 -135.515625 C 55.035156 -131.566406 53.332031 -127.566406 51.84375 -123.515625 C 46.507812 -107.734375 41.65625 -91.894531 37.28125 -76 C 32.90625 -60.101562 30.398438 -43.726562 29.765625 -26.875 C 29.765625 -23.894531 29.550781 -20.910156 29.125 -17.921875 C 28.695312 -14.929688 28.375 -11.941406 28.15625 -8.953125 C 27.945312 -5.972656 27.46875 -4.109375 26.71875 -3.359375 C 25.96875 -2.609375 24.101562 -2.234375 21.125 -2.234375 C 16.851562 -2.023438 12.265625 -2.132812 7.359375 -2.5625 C 4.160156 -2.5625 2.132812 -2.929688 1.28125 -3.671875 C 0.425781 -4.421875 -0.316406 -6.394531 -0.953125 -9.59375 C -2.023438 -15.144531 -2.828125 -20.691406 -3.359375 -26.234375 C -3.890625 -31.785156 -4.265625 -37.332031 -4.484375 -42.875 C -5.546875 -64 -5.488281 -85.066406 -4.3125 -106.078125 C -3.144531 -127.085938 -0.960938 -148.046875 2.234375 -168.953125 C 2.453125 -169.804688 2.613281 -170.609375 2.71875 -171.359375 C 2.820312 -172.109375 2.984375 -172.800781 3.203125 -173.4375 C 3.835938 -178.132812 6.394531 -180.375 10.875 -180.15625 C 13.007812 -180.15625 15.085938 -180.316406 17.109375 -180.640625 C 19.140625 -180.960938 21.222656 -181.125 23.359375 -181.125 C 27.410156 -181.332031 29.8125 -181.113281 30.5625 -180.46875 C 31.3125 -179.832031 31.789062 -177.488281 32 -173.4375 C 32.425781 -168.320312 32.742188 -163.203125 32.953125 -158.078125 C 33.171875 -152.960938 33.171875 -147.84375 32.953125 -142.71875 C 32.953125 -142.082031 32.953125 -141.335938 32.953125 -140.484375 C 32.953125 -139.628906 32.953125 -138.5625 32.953125 -137.28125 C 34.660156 -138.34375 35.832031 -139.515625 36.46875 -140.796875 C 37.113281 -142.078125 37.863281 -143.25 38.71875 -144.3125 C 41.707031 -148.582031 44.960938 -152.53125 48.484375 -156.15625 C 52.003906 -159.78125 56.109375 -162.875 60.796875 -165.4375 C 70.398438 -170.988281 79.628906 -172.21875 88.484375 -169.125 C 97.335938 -166.03125 103.894531 -159.363281 108.15625 -149.125 C 110.289062 -143.570312 111.890625 -138.019531 112.953125 -132.46875 C 114.023438 -126.925781 114.773438 -121.273438 115.203125 -115.515625 C 115.628906 -111.253906 116 -106.9375 116.3125 -102.5625 C 116.632812 -98.1875 116.90625 -93.757812 117.125 -89.28125 C 118.832031 -89.914062 120.003906 -90.875 120.640625 -92.15625 C 121.273438 -93.4375 121.914062 -94.613281 122.5625 -95.6875 C 124.90625 -99.3125 127.359375 -102.773438 129.921875 -106.078125 C 132.484375 -109.390625 135.253906 -112.535156 138.234375 -115.515625 C 139.515625 -116.585938 140.796875 -117.65625 142.078125 -118.71875 C 143.359375 -119.78125 144.640625 -120.847656 145.921875 -121.921875 C 154.242188 -127.253906 161.867188 -128.585938 168.796875 -125.921875 C 175.734375 -123.253906 180.484375 -117.226562 183.046875 -107.84375 C 184.535156 -102.9375 185.597656 -98.03125 186.234375 -93.125 C 186.878906 -88.21875 187.304688 -83.3125 187.515625 -78.40625 C 187.515625 -71.570312 187.941406 -64.796875 188.796875 -58.078125 C 189.648438 -51.359375 190.613281 -44.585938 191.6875 -37.765625 C 192.101562 -35.410156 192.738281 -33.113281 193.59375 -30.875 C 194.445312 -28.632812 195.726562 -26.660156 197.4375 -24.953125 C 199.78125 -22.179688 202.34375 -21.863281 205.125 -24 C 206.832031 -25.28125 208.269531 -26.664062 209.4375 -28.15625 C 210.613281 -29.65625 211.734375 -31.253906 212.796875 -32.953125 C 218.128906 -40.847656 222.925781 -49.0625 227.1875 -57.59375 C 231.457031 -66.132812 235.625 -74.671875 239.6875 -83.203125 C 240.53125 -84.691406 241.328125 -86.289062 242.078125 -88 C 242.828125 -89.707031 243.628906 -91.414062 244.484375 -93.125 C 245.335938 -95.039062 246.457031 -96.101562 247.84375 -96.3125 C 249.226562 -96.53125 250.773438 -96.320312 252.484375 -95.6875 Z M 252.484375 -95.6875 "/></g></g></g><g fill="#6e9274" fill-opacity="1"><g transform="translate(630.81442, 294.374981)"><g><path d="M 78.71875 -91.203125 C 78.71875 -91.203125 78.1875 -90.988281 77.125 -90.5625 C 77.125 -89.914062 77.125 -89.273438 77.125 -88.640625 C 77.125 -88.003906 77.226562 -87.363281 77.4375 -86.71875 C 80.207031 -76.269531 81.003906 -65.976562 79.828125 -55.84375 C 78.660156 -45.707031 76.050781 -35.734375 72 -25.921875 C 67.519531 -15.035156 61.066406 -7.457031 52.640625 -3.1875 C 44.210938 1.070312 34.347656 1.917969 23.046875 -0.640625 C 17.066406 -2.128906 12.050781 -4.632812 8 -8.15625 C 3.945312 -11.675781 0.636719 -16 -1.921875 -21.125 C -4.910156 -26.882812 -6.882812 -32.800781 -7.84375 -38.875 C -8.800781 -44.957031 -9.066406 -51.09375 -8.640625 -57.28125 C -7.578125 -68.582031 -5.390625 -79.515625 -2.078125 -90.078125 C 1.222656 -100.640625 5.96875 -110.613281 12.15625 -120 C 14.082031 -122.988281 16.164062 -125.816406 18.40625 -128.484375 C 20.644531 -131.148438 23.148438 -133.550781 25.921875 -135.6875 C 30.828125 -139.3125 35.253906 -141.125 39.203125 -141.125 C 43.148438 -141.125 47.46875 -139.414062 52.15625 -136 C 54.082031 -134.507812 55.953125 -132.960938 57.765625 -131.359375 C 59.578125 -129.753906 61.335938 -128.101562 63.046875 -126.40625 C 64.316406 -125.125 65.59375 -123.84375 66.875 -122.5625 C 68.15625 -121.28125 69.4375 -120 70.71875 -118.71875 C 78.394531 -110.820312 86.820312 -105.21875 96 -101.90625 C 105.175781 -98.601562 115.3125 -98.445312 126.40625 -101.4375 C 128.101562 -101.863281 129.859375 -102.238281 131.671875 -102.5625 C 133.492188 -102.882812 135.253906 -103.148438 136.953125 -103.359375 C 138.453125 -103.785156 139.785156 -103.785156 140.953125 -103.359375 C 142.128906 -102.929688 142.929688 -101.863281 143.359375 -100.15625 C 144.210938 -96.75 142.828125 -94.507812 139.203125 -93.4375 C 130.242188 -91.300781 121.226562 -89.644531 112.15625 -88.46875 C 103.09375 -87.300781 93.972656 -87.785156 84.796875 -89.921875 C 83.734375 -90.347656 82.71875 -90.613281 81.75 -90.71875 C 80.789062 -90.820312 79.78125 -90.984375 78.71875 -91.203125 Z M 46.078125 -112 C 45.441406 -112.851562 44.800781 -113.707031 44.15625 -114.5625 C 43.519531 -115.414062 42.5625 -116.054688 41.28125 -116.484375 C 39.570312 -114.554688 38.179688 -112.472656 37.109375 -110.234375 C 36.046875 -107.992188 35.085938 -105.703125 34.234375 -103.359375 C 32.316406 -97.171875 30.71875 -90.875 29.4375 -84.46875 C 28.15625 -78.070312 27.085938 -71.675781 26.234375 -65.28125 C 25.171875 -58.457031 24.691406 -51.628906 24.796875 -44.796875 C 24.898438 -37.972656 26.019531 -31.144531 28.15625 -24.3125 C 28.582031 -22.613281 29.113281 -20.910156 29.75 -19.203125 C 30.394531 -17.492188 31.359375 -15.894531 32.640625 -14.40625 C 36.054688 -9.925781 39.894531 -9.601562 44.15625 -13.4375 C 47.144531 -16.207031 49.707031 -19.832031 51.84375 -24.3125 C 59.09375 -39.46875 62.023438 -54.347656 60.640625 -68.953125 C 59.253906 -83.566406 54.398438 -97.914062 46.078125 -112 Z M 46.078125 -112 "/></g></g></g><g fill="#6e9274" fill-opacity="1"><g transform="translate(758.492206, 294.374981)"><g><path d="M 179.84375 -93.4375 C 182.820312 -92.800781 184.738281 -92 185.59375 -91.03125 C 186.445312 -90.070312 186.445312 -88.101562 185.59375 -85.125 C 182.1875 -72.101562 178.132812 -59.40625 173.4375 -47.03125 C 168.75 -34.664062 162.773438 -22.9375 155.515625 -11.84375 C 152.535156 -7.363281 149.441406 -3.628906 146.234375 -0.640625 C 141.753906 3.410156 135.992188 5.96875 128.953125 7.03125 C 121.921875 8.101562 115.738281 7.359375 110.40625 4.796875 C 107.414062 3.515625 105.066406 1.699219 103.359375 -0.640625 C 101.648438 -2.984375 100.15625 -5.648438 98.875 -8.640625 C 96.957031 -13.546875 95.570312 -18.613281 94.71875 -23.84375 C 93.863281 -29.070312 93.332031 -34.351562 93.125 -39.6875 C 92.476562 -50.5625 92.53125 -61.382812 93.28125 -72.15625 C 94.03125 -82.925781 94.617188 -93.753906 95.046875 -104.640625 C 95.679688 -116.367188 94.828125 -128.101562 92.484375 -139.84375 C 92.054688 -141.550781 91.570312 -143.414062 91.03125 -145.4375 C 90.5 -147.46875 89.0625 -148.695312 86.71875 -149.125 C 84.582031 -149.550781 82.875 -149.066406 81.59375 -147.671875 C 80.320312 -146.285156 79.046875 -144.847656 77.765625 -143.359375 C 65.597656 -128.210938 56.316406 -111.46875 49.921875 -93.125 C 44.796875 -78.40625 40.3125 -63.523438 36.46875 -48.484375 C 32.632812 -33.441406 29.332031 -18.347656 26.5625 -3.203125 C 25.707031 1.066406 24.851562 3.519531 24 4.15625 C 23.144531 4.800781 20.691406 5.226562 16.640625 5.4375 C 15.148438 5.4375 13.65625 5.488281 12.15625 5.59375 C 10.664062 5.707031 9.175781 5.765625 7.6875 5.765625 C 2.769531 6.191406 -0.269531 5.921875 -1.4375 4.953125 C -2.613281 3.992188 -3.519531 1.273438 -4.15625 -3.203125 C -5.007812 -8.742188 -5.863281 -14.285156 -6.71875 -19.828125 C -7.570312 -25.378906 -8.101562 -30.929688 -8.3125 -36.484375 C -9.164062 -56.742188 -9.0625 -76.953125 -8 -97.109375 C -6.9375 -117.273438 -4.695312 -137.382812 -1.28125 -157.4375 C -1.28125 -158.289062 -1.117188 -159.144531 -0.796875 -160 C -0.472656 -160.851562 -0.3125 -161.707031 -0.3125 -162.5625 C 0.101562 -166.820312 2.554688 -168.847656 7.046875 -168.640625 C 12.160156 -168.640625 17.597656 -168.742188 23.359375 -168.953125 C 27.203125 -169.171875 29.335938 -167.253906 29.765625 -163.203125 C 29.972656 -160.429688 30.078125 -157.976562 30.078125 -155.84375 C 30.078125 -147.945312 30.078125 -140 30.078125 -132 C 30.078125 -124 30.078125 -115.945312 30.078125 -107.84375 C 30.078125 -106.5625 30.078125 -105.171875 30.078125 -103.671875 C 30.078125 -102.179688 30.078125 -100.476562 30.078125 -98.5625 C 31.785156 -99.84375 32.90625 -101.226562 33.4375 -102.71875 C 33.96875 -104.207031 34.554688 -105.59375 35.203125 -106.875 C 38.398438 -113.488281 41.757812 -119.941406 45.28125 -126.234375 C 48.800781 -132.535156 52.800781 -138.5625 57.28125 -144.3125 C 60.90625 -148.800781 64.90625 -152.644531 69.28125 -155.84375 C 73.65625 -159.039062 78.722656 -161.28125 84.484375 -162.5625 C 97.285156 -165.550781 106.988281 -161.285156 113.59375 -149.765625 C 115.726562 -145.921875 117.273438 -141.863281 118.234375 -137.59375 C 119.203125 -133.332031 119.894531 -129.066406 120.3125 -124.796875 C 120.738281 -118.609375 120.898438 -112.421875 120.796875 -106.234375 C 120.691406 -100.046875 120.320312 -93.863281 119.6875 -87.6875 C 118.613281 -76.164062 117.863281 -64.585938 117.4375 -52.953125 C 117.007812 -41.328125 118.078125 -29.753906 120.640625 -18.234375 C 120.640625 -17.597656 120.691406 -17.015625 120.796875 -16.484375 C 120.898438 -15.953125 121.0625 -15.363281 121.28125 -14.71875 C 121.914062 -12.800781 122.5 -10.773438 123.03125 -8.640625 C 123.570312 -6.503906 125.125 -5.222656 127.6875 -4.796875 C 130.03125 -4.367188 132 -4.953125 133.59375 -6.546875 C 135.195312 -8.148438 136.640625 -9.804688 137.921875 -11.515625 C 140.054688 -14.078125 141.972656 -16.90625 143.671875 -20 C 145.378906 -23.09375 147.085938 -26.132812 148.796875 -29.125 C 153.703125 -38.507812 158.078125 -48.109375 161.921875 -57.921875 C 165.765625 -67.734375 169.390625 -77.65625 172.796875 -87.6875 C 173.222656 -89.382812 173.8125 -90.925781 174.5625 -92.3125 C 175.3125 -93.707031 177.070312 -94.082031 179.84375 -93.4375 Z M 179.84375 -93.4375 "/></g></g></g><g fill="#6e9274" fill-opacity="1"><g transform="translate(928.729198, 294.374981)"><g><path d="M 171.84375 -89.59375 C 174.820312 -88.320312 176.472656 -87.257812 176.796875 -86.40625 C 177.117188 -85.550781 176.640625 -83.519531 175.359375 -80.3125 C 169.171875 -66.445312 162.820312 -52.738281 156.3125 -39.1875 C 149.8125 -25.644531 143.039062 -12.15625 136 1.28125 C 134.507812 4.269531 132.800781 7.253906 130.875 10.234375 C 128.957031 13.222656 126.828125 16 124.484375 18.5625 C 120.210938 23.25 115.085938 26.070312 109.109375 27.03125 C 103.140625 28 97.378906 27.253906 91.828125 24.796875 C 86.285156 22.347656 82.023438 18.347656 79.046875 12.796875 C 75.835938 6.609375 73.429688 0.152344 71.828125 -6.5625 C 70.234375 -13.28125 68.90625 -20.050781 67.84375 -26.875 C 66.769531 -33.28125 66.070312 -39.628906 65.75 -45.921875 C 65.4375 -52.210938 65.066406 -58.554688 64.640625 -64.953125 C 64.640625 -65.597656 64.640625 -66.398438 64.640625 -67.359375 C 64.640625 -68.316406 64.109375 -69.222656 63.046875 -70.078125 C 61.335938 -66.878906 59.578125 -63.785156 57.765625 -60.796875 C 55.953125 -57.804688 54.082031 -54.710938 52.15625 -51.515625 C 50.445312 -48.535156 48.578125 -45.65625 46.546875 -42.875 C 44.523438 -40.101562 42.34375 -37.332031 40 -34.5625 C 35.300781 -29.65625 29.4375 -27.203125 22.40625 -27.203125 C 13.4375 -27.203125 7.25 -31.253906 3.84375 -39.359375 C 2.132812 -43.410156 0.851562 -47.566406 0 -51.828125 C -0.851562 -56.097656 -1.382812 -60.367188 -1.59375 -64.640625 C -2.019531 -73.816406 -1.59375 -82.773438 -0.3125 -91.515625 C 0.957031 -100.265625 3.410156 -108.800781 7.046875 -117.125 C 11.304688 -126.9375 17.007812 -135.253906 24.15625 -142.078125 C 31.300781 -148.898438 40.421875 -153.378906 51.515625 -155.515625 C 55.359375 -156.160156 59.039062 -156.269531 62.5625 -155.84375 C 66.082031 -155.414062 69.65625 -154.773438 73.28125 -153.921875 C 75.414062 -153.492188 77.867188 -153.707031 80.640625 -154.5625 C 84.910156 -156.269531 89.335938 -157.066406 93.921875 -156.953125 C 98.503906 -156.847656 103.035156 -156.691406 107.515625 -156.484375 C 108.585938 -156.484375 109.335938 -156.109375 109.765625 -155.359375 C 110.191406 -154.609375 110.507812 -153.804688 110.71875 -152.953125 C 111.363281 -151.035156 111.738281 -149.0625 111.84375 -147.03125 C 111.945312 -145.007812 112 -143.039062 112 -141.125 C 111.789062 -124.050781 111.257812 -107.035156 110.40625 -90.078125 C 109.550781 -73.117188 108.585938 -56.109375 107.515625 -39.046875 C 107.085938 -32.640625 106.765625 -26.289062 106.546875 -20 C 106.335938 -13.707031 106.34375 -7.359375 106.5625 -0.953125 C 106.5625 0.742188 106.664062 2.550781 106.875 4.46875 C 107.09375 6.394531 107.628906 8.316406 108.484375 10.234375 C 110.191406 9.597656 111.523438 8.585938 112.484375 7.203125 C 113.441406 5.816406 114.347656 4.585938 115.203125 3.515625 C 120.316406 -3.949219 125.007812 -11.6875 129.28125 -19.6875 C 133.550781 -27.6875 137.710938 -35.738281 141.765625 -43.84375 C 145.390625 -50.664062 148.851562 -57.539062 152.15625 -64.46875 C 155.46875 -71.40625 158.828125 -78.289062 162.234375 -85.125 C 163.941406 -88.53125 165.273438 -90.445312 166.234375 -90.875 C 167.203125 -91.300781 169.070312 -90.875 171.84375 -89.59375 Z M 73.28125 -131.203125 C 73.707031 -135.679688 72.691406 -138.878906 70.234375 -140.796875 C 67.785156 -142.722656 64.425781 -143.148438 60.15625 -142.078125 C 58.445312 -141.441406 56.847656 -140.640625 55.359375 -139.671875 C 53.867188 -138.710938 52.484375 -137.59375 51.203125 -136.3125 C 48.640625 -133.96875 46.394531 -131.460938 44.46875 -128.796875 C 42.550781 -126.128906 40.742188 -123.410156 39.046875 -120.640625 C 32.640625 -110.609375 28.15625 -100.097656 25.59375 -89.109375 C 23.039062 -78.128906 21.65625 -66.773438 21.4375 -55.046875 C 21.4375 -54.191406 21.382812 -53.28125 21.28125 -52.3125 C 21.175781 -51.351562 21.226562 -50.445312 21.4375 -49.59375 C 21.65625 -47.675781 21.550781 -45.546875 21.125 -43.203125 C 20.695312 -40.859375 21.867188 -39.363281 24.640625 -38.71875 C 26.984375 -38.082031 28.796875 -38.773438 30.078125 -40.796875 C 31.359375 -42.828125 32.425781 -44.695312 33.28125 -46.40625 C 40.53125 -58.34375 47.195312 -70.550781 53.28125 -83.03125 C 59.363281 -95.519531 65.175781 -108.054688 70.71875 -120.640625 C 72 -123.835938 72.851562 -127.359375 73.28125 -131.203125 Z M 73.28125 -131.203125 "/></g></g></g><g clip-path="url(#ce961fe700)"><g clip-path="url(#e6617ebcad)"><g transform="matrix(1, 0, 0, 1, 1087, 279)"><g clip-path="url(#3a6e459973)"><g clip-path="url(#5d94c4853a)"><g clip-path="url(#2ea2040a78)"><path fill="#ff5757" d="M 0.5 0.351562 L 25.132812 0.351562 L 25.132812 22.714844 L 0.5 22.714844 Z M 0.5 0.351562 " fill-opacity="1" fill-rule="nonzero"/></g></g></g></g></g></g></svg>